<svg width="28" height="28" viewBox="0 0 28 28" fill="none" xmlns="http://www.w3.org/2000/svg">
<mask id="mask0_2206_5738" style="mask-type:alpha" maskUnits="userSpaceOnUse" x="0" y="0" width="28" height="28">
<rect width="28" height="28" fill="#C4C4C4"/>
</mask>
<g mask="url(#mask0_2206_5738)">
<path d="M22.8083 25.8418C22.6252 25.8418 22.4443 25.7835 22.2927 25.6738L13.5917 19.3411L4.89067 25.6762C4.62467 25.8675 4.27232 25.8978 3.97832 25.7462C3.68665 25.598 3.5 25.297 3.5 24.968V4.9585C3.5 3.51183 4.67833 2.3335 6.125 2.3335H21.056C22.5027 2.3335 23.681 3.51183 23.681 4.9585V24.9668C23.681 25.2958 23.4967 25.5968 23.2027 25.7462C23.079 25.8103 22.9425 25.8418 22.806 25.8418H22.8083ZM13.5917 17.3835C13.7725 17.3835 13.9533 17.4395 14.105 17.5515L21.9333 23.2483V4.9585C21.9333 4.47783 21.5402 4.0835 21.0583 4.0835H6.125C5.64317 4.0835 5.25 4.47783 5.25 4.9585V23.2483L13.0783 17.5515C13.23 17.4395 13.4108 17.3835 13.5917 17.3835Z" fill="current"/>
</g>
</svg>
