<svg width="28" height="28" viewBox="0 0 28 28" fill="none" xmlns="http://www.w3.org/2000/svg">
<mask id="mask0_2209_17626" style="mask-type:alpha" maskUnits="userSpaceOnUse" x="0" y="0" width="28" height="28">
<rect width="28" height="28" fill="#C4C4C4"/>
</mask>
<g mask="url(#mask0_2209_17626)">
<path d="M26.4599 8.83533L14.6707 2.4735C14.3242 2.28683 13.9077 2.28683 13.5624 2.4735L1.77907 8.83533C1.21207 9.14333 1.0009 9.85032 1.30657 10.4173C1.51657 10.8082 1.91907 11.0298 2.33324 11.0298C2.5199 11.0298 2.71124 10.9855 2.8874 10.8898L3.74374 10.4278L5.59874 23.5528C5.85074 24.9692 7.12707 25.9585 8.70207 25.9585H19.531C21.106 25.9585 22.3824 24.9692 22.6367 23.5225L24.4894 10.4267L25.3492 10.891C25.915 11.1978 26.6232 10.9866 26.9289 10.4197C27.2357 9.85265 27.0222 9.14449 26.4575 8.83882L26.4599 8.83533ZM14.1165 18.2678C12.0224 18.2678 10.3249 16.5703 10.3249 14.4762C10.3249 12.382 12.0224 10.6845 14.1165 10.6845C16.2107 10.6845 17.9082 12.382 17.9082 14.4762C17.9082 16.5703 16.2107 18.2678 14.1165 18.2678Z" fill="#1D9BF0"/>
</g>
</svg>
