<svg width="28" height="28" viewBox="0 0 28 28" fill="none" xmlns="http://www.w3.org/2000/svg">
<mask id="mask0_2202_20863" style="mask-type:alpha" maskUnits="userSpaceOnUse" x="0" y="0" width="28" height="28">
<rect width="28" height="28" fill="#C4C4C4"/>
</mask>
<g mask="url(#mask0_2202_20863)">
<path d="M26.0287 8.80267L14.2418 2.4385C13.9817 2.2985 13.6702 2.2985 13.41 2.4385L1.62551 8.80267C1.20085 9.0325 1.04218 9.56333 1.27202 9.98916C1.42952 10.2808 1.73168 10.4477 2.04202 10.4477C2.18202 10.4477 2.32552 10.4127 2.45735 10.3427L3.40818 9.82932L5.30868 23.2612C5.55835 24.6787 6.83468 25.6668 8.40968 25.6668H19.2387C20.816 25.6668 22.0912 24.6775 22.3455 23.232L24.2425 9.82699L25.1968 10.3427C25.6215 10.5678 26.1535 10.4127 26.3833 9.98799C26.612 9.56449 26.4533 9.03367 26.0287 8.80267ZM20.6177 22.9578C20.4928 23.6648 19.7975 23.9168 19.241 23.9168H8.41202C7.85202 23.9168 7.15785 23.6648 7.03768 22.9858L5.05201 8.94266L13.8253 4.20366L22.601 8.94033L20.6177 22.9578Z" fill="black"/>
<path d="M9.41532 14.1856C9.41532 16.617 11.3928 18.5956 13.8253 18.5956C16.2578 18.5956 18.2353 16.617 18.2353 14.1856C18.2353 11.7543 16.2578 9.77563 13.8253 9.77563C11.3928 9.77563 9.41532 11.7543 9.41532 14.1856ZM16.4853 14.1856C16.4853 15.6533 15.293 16.8456 13.8253 16.8456C12.3577 16.8456 11.1653 15.6533 11.1653 14.1856C11.1653 12.718 12.3577 11.5256 13.8253 11.5256C15.293 11.5256 16.4853 12.718 16.4853 14.1856Z" fill="black"/>
</g>
</svg>
