<svg width="28" height="28" viewBox="0 0 28 28" fill="none" xmlns="http://www.w3.org/2000/svg">
<mask id="mask0_2206_10782" style="mask-type:alpha" maskUnits="userSpaceOnUse" x="0" y="0" width="28" height="28">
<rect width="28" height="28" fill="#C4C4C4"/>
</mask>
<g mask="url(#mask0_2206_10782)">
<path d="M23.0417 25.6668H4.95837C3.51171 25.6668 2.33337 24.4885 2.33337 23.0418V4.9585C2.33337 3.51183 3.51171 2.3335 4.95837 2.3335H23.0417C24.4884 2.3335 25.6667 3.51183 25.6667 4.9585V23.0418C25.6667 24.4885 24.4884 25.6668 23.0417 25.6668ZM4.95837 4.0835C4.47537 4.0835 4.08337 4.47666 4.08337 4.9585V23.0418C4.08337 23.5237 4.47537 23.9168 4.95837 23.9168H23.0417C23.5247 23.9168 23.9167 23.5237 23.9167 23.0418V4.9585C23.9167 4.47666 23.5247 4.0835 23.0417 4.0835H4.95837Z" fill="current"/>
<path d="M19.5417 9.9165H7.875C7.392 9.9165 7 9.52334 7 9.0415C7 8.55967 7.392 8.1665 7.875 8.1665H19.5417C20.0247 8.1665 20.4167 8.55734 20.4167 9.0415C20.4167 9.52567 20.0247 9.9165 19.5417 9.9165ZM19.5417 14.7115H7.875C7.392 14.7115 7 14.3195 7 13.8365C7 13.3535 7.392 12.9615 7.875 12.9615H19.5417C20.0247 12.9615 20.4167 13.3535 20.4167 13.8365C20.4167 14.3195 20.0247 14.7115 19.5417 14.7115ZM13.7083 19.5065H7.875C7.392 19.5065 7 19.1157 7 18.6315C7 18.1473 7.392 17.7565 7.875 17.7565H13.7083C14.1913 17.7565 14.5833 18.1497 14.5833 18.6315C14.5833 19.1133 14.1913 19.5065 13.7083 19.5065Z" fill="current"/>
</g>
</svg>
