<svg width="28" height="28" viewBox="0 0 28 28" fill="none" xmlns="http://www.w3.org/2000/svg">
<mask id="mask0_2206_17978" style="mask-type:alpha" maskUnits="userSpaceOnUse" x="0" y="0" width="28" height="28">
<rect width="28" height="28" fill="#C4C4C4"/>
</mask>
<g mask="url(#mask0_2206_17978)">
<path d="M18.9583 11.6665C17.8325 11.6665 16.9166 12.5847 16.9166 13.7082C16.9166 14.8317 17.8313 15.7498 18.9583 15.7498C20.083 15.7498 21 14.8328 21 13.7082C21 12.5835 20.083 11.6665 18.9583 11.6665ZM18.9583 14.5832C18.4753 14.5832 18.0833 14.1912 18.0833 13.7082C18.0833 13.2263 18.4765 12.8332 18.9583 12.8332C19.4401 12.8332 19.8333 13.2252 19.8333 13.7082C19.8333 14.19 19.4413 14.5832 18.9583 14.5832ZM13.7083 11.6665C12.5813 11.6665 11.6666 12.5847 11.6666 13.7082C11.6666 14.8317 12.5825 15.7498 13.7083 15.7498C14.8341 15.7498 15.75 14.8328 15.75 13.7082C15.75 12.5835 14.8353 11.6665 13.7083 11.6665ZM13.7083 14.5832C13.2253 14.5832 12.8333 14.1912 12.8333 13.7082C12.8333 13.2263 13.2265 12.8332 13.7083 12.8332C14.1901 12.8332 14.5833 13.2252 14.5833 13.7082C14.5833 14.19 14.1913 14.5832 13.7083 14.5832ZM8.45829 11.6665C7.33246 11.6665 6.41663 12.5847 6.41663 13.7082C6.41663 14.8317 7.33246 15.7498 8.45829 15.7498C9.58296 15.7498 10.5 14.8328 10.5 13.7082C10.5 12.5835 9.58179 11.6665 8.45829 11.6665ZM8.45829 14.5832C7.97529 14.5832 7.58329 14.1912 7.58329 13.7082C7.58329 13.2263 7.97646 12.8332 8.45829 12.8332C8.94013 12.8332 9.33329 13.2252 9.33329 13.7082C9.33329 14.19 8.94129 14.5832 8.45829 14.5832Z" fill="white"/>
<path d="M13.7083 26.2498C6.79229 26.2498 1.16663 20.6242 1.16663 13.7082C1.16663 6.79217 6.79229 1.1665 13.7083 1.1665C20.6243 1.1665 26.25 6.79217 26.25 13.7082C26.25 20.6242 20.6243 26.2498 13.7083 26.2498ZM13.7083 2.9165C7.75829 2.9165 2.91663 7.75817 2.91663 13.7082C2.91663 19.6582 7.75829 24.4998 13.7083 24.4998C19.6583 24.4998 24.5 19.6582 24.5 13.7082C24.5 7.75817 19.6583 2.9165 13.7083 2.9165Z" fill="white"/>
</g>
</svg>
