<svg width="28" height="28" viewBox="0 0 28 28" fill="none" xmlns="http://www.w3.org/2000/svg">
<mask id="mask0_2206_19855" style="mask-type:alpha" maskUnits="userSpaceOnUse" x="0" y="0" width="28" height="28">
<rect width="28" height="28" fill="#C4C4C4"/>
</mask>
<g mask="url(#mask0_2206_19855)">
<path d="M25.3141 19.2945C25.2908 19.2758 22.8174 17.3812 22.8606 12.2595C22.8839 9.30551 21.9133 6.6805 20.1224 4.86867C18.5183 3.2435 16.3459 2.34516 14.0068 2.3335H13.9916C11.6536 2.34516 9.48127 3.24351 7.87593 4.86984C6.08627 6.68168 5.11328 9.30551 5.13894 12.2595C5.18211 17.3112 2.78227 19.221 2.6866 19.2945C2.38327 19.5197 2.2596 19.9128 2.37744 20.2722C2.49644 20.6315 2.83243 20.873 3.20809 20.873H8.94811C9.06711 23.568 11.2779 25.7263 13.9998 25.7263C16.7216 25.7263 18.9301 23.568 19.0479 20.873H24.7903C25.1659 20.873 25.5019 20.6327 25.6186 20.2733C25.7388 19.9152 25.6151 19.5208 25.3118 19.2957L25.3141 19.2945ZM14.0009 23.9728C12.2451 23.9728 10.8159 22.5997 10.7016 20.8718H17.3003C17.1836 22.5985 15.7568 23.9752 14.0009 23.9752V23.9728ZM5.11094 19.1218C5.97427 17.8012 6.91694 15.5892 6.88894 12.2432C6.86794 9.72317 7.64027 7.5975 9.12077 6.09834C10.3959 4.80684 12.1308 4.09166 14.0009 4.0835C15.8711 4.09283 17.6024 4.80684 18.8776 6.09951C20.3593 7.59868 21.1328 9.72317 21.1118 12.2443C21.0838 15.5903 22.0276 17.8035 22.8909 19.123H5.11094V19.1218Z" fill="black"/>
</g>
</svg>
