<svg width="28" height="28" viewBox="0 0 28 28" fill="none" xmlns="http://www.w3.org/2000/svg">
<mask id="mask0_2206_1357" style="mask-type:alpha" maskUnits="userSpaceOnUse" x="0" y="0" width="28" height="28">
<rect width="28" height="28" fill="#C4C4C4"/>
</mask>
<g mask="url(#mask0_2206_1357)">
<path d="M13.9702 14.188C12.3882 14.188 10.6196 14.013 9.49023 12.7227C8.54056 11.6377 8.23373 9.96 8.55107 7.59866C8.9944 4.30166 11.0197 2.3335 13.9714 2.3335C16.9231 2.3335 18.9496 4.30166 19.3917 7.59866C19.7091 9.96 19.4011 11.6353 18.4514 12.7227C17.3197 14.013 15.5522 14.1868 13.9714 14.1868L13.9702 14.188ZM20.7941 25.6797H7.1464C6.3729 25.6797 5.68807 25.353 5.2214 24.7627C4.72907 24.1397 4.5494 23.281 4.74307 22.4667C5.71607 18.3483 9.51006 15.4702 13.9691 15.4702C18.4281 15.4702 22.2221 18.3472 23.1974 22.4667C23.3887 23.281 23.2091 24.1397 22.7167 24.7615C22.2501 25.3507 21.5676 25.6773 20.7941 25.6773V25.6797Z" fill="current"/>
</g>
</svg>
