<svg width="28" height="28" viewBox="0 0 28 28" fill="none" xmlns="http://www.w3.org/2000/svg">
<mask id="mask0_2202_21176" style="mask-type:alpha" maskUnits="userSpaceOnUse" x="0" y="0" width="28" height="28">
<rect width="28" height="28" fill="#C4C4C4"/>
</mask>
<g mask="url(#mask0_2202_21176)">
<path d="M13.2428 14.1868C14.8236 14.1868 16.5935 14.0118 17.7228 12.7215C18.6725 11.6365 18.9805 9.95883 18.6631 7.5975C18.2198 4.30166 16.1933 2.3335 13.2428 2.3335C10.2923 2.3335 8.2658 4.30166 7.82247 7.59983C7.50514 9.95883 7.81315 11.6365 8.76281 12.7215C9.89215 14.013 11.662 14.1868 13.2428 14.1868ZM9.55614 7.83083C9.74514 6.43083 10.4743 4.0835 13.2428 4.0835C16.0113 4.0835 16.7405 6.43199 16.9295 7.83083C17.171 9.63916 16.996 10.8957 16.4045 11.57C15.8736 12.1767 14.9275 12.4368 13.2428 12.4368C11.5581 12.4368 10.612 12.1767 10.0811 11.57C9.48964 10.8957 9.31464 9.63799 9.55614 7.83083ZM22.9028 22.8435C21.8796 18.7298 17.9071 15.8552 13.2428 15.8552C8.57848 15.8552 4.60598 18.7298 3.58281 22.8435C3.38214 23.6508 3.55014 24.4768 4.04364 25.1068C4.51964 25.7135 5.25697 26.0635 6.06547 26.0635H20.4201C21.2286 26.0635 21.966 25.7135 22.442 25.1068C22.9366 24.4768 23.1035 23.652 22.9016 22.8435H22.9028ZM21.0641 24.0288C20.9171 24.2155 20.6955 24.3158 20.4201 24.3158H6.06547C5.79131 24.3158 5.56847 24.2167 5.42147 24.0288C5.26164 23.8258 5.21148 23.5482 5.28148 23.2658C6.10981 19.935 9.38464 17.6075 13.2428 17.6075C17.101 17.6075 20.3758 19.9338 21.2041 23.2658C21.2741 23.5482 21.224 23.8258 21.0641 24.0288Z" fill="current"/>
</g>
</svg>
